/* XPM */
static char *vim48x48[] = {
/* width height num_colors chars_per_pixel */
"    48    48        8            1",
/* colors */
". c #000000",
"# c #000084",
"a c #008200",
"b c #00ff00",
"c c #848284",
"d c #c6c3c6",
"e c #ffffff",
"f c None",
/* pixels */
"fffffffffffffffffffffff..fffffffffffffffffffffff",
"ffffffffffffffffffffff.bb.ffffffffffffffffffffff",
"fffffffffffffffffffff.baab.fffffffffffffffffffff",
"ffffff...............baaaab.fff...............ff",
"fffff.eeeeeeeeeeeeeee.aaaaab.f.eeeeeeeeeeeeeee.f",
"ffff.eeddddddddddddddc.aaaaab.eeddddddddddddddc.",
"ffff.edddddddddddddddc.aaaaaa.edddddddddddddddc.",
"ffff.ecddddddddddddddc.aaaaaa.ecddddddddddddddc.",
"fffff.cccdddddddddccc.aaaaaaaa.cccdddddddddddcc.",
"ffffff..edddddddddcc.aaaaaaaaaa..eddddddddddcc.f",
"fffffff.edddddddddcc.aaaaaaaaaa.eedddddddddcc.ff",
"fffffff.edddddddddcc.aaaaaaaaa.eedddddddddcc.fff",
"fffffff.edddddddddcc.aaaaaaaa.eedddddddddcc.ffff",
"fffffff.edddddddddcc.aaaaaaa.eedddddddddcc.fffff",
"fffffff.edddddddddcc.aaaaaa.eedddddddddcc.ffffff",
"fffffff.edddddddddcc.aaaaa.eedddddddddcc.fffffff",
"fffffff.edddddddddcc.aaaa.eedddddddddcc..fffffff",
"ffffff..edddddddddcc.aaa.eedddddddddcc.ab.ffffff",
"fffff.b.edddddddddcc.aa.eedddddddddcc.aaab.fffff",
"ffff.ba.edddddddddcc.a.eedddddddddcc.aaaaab.ffff",
"fff.baa.edddddddddcc..eedddddddddcc.aaaaaaab.fff",
"ff.baaa.edddddddddcc.eedddddddddcc.aaaaaaaaab.ff",
"f.baaaa.edddddddddcceedddddddddcc.aaaaaaaaaaab.f",
".b#aaaa.edddddddddccedddddddddcc.aaaaaaaaaaaaab.",
"f.##aaa.edddddddddcedddddddddcc.aaaaaaaaaaaaa##.",
"ff.##aa.edddddddddcdddddddddcc.aaaaaaaaaaaaa##.f",
"fff.##a.eddddddddddddddddddcc.aaaaaaaaaaaaa##.ff",
"ffff.##.edddddddddddddddd....aaaaaaaaaaaaa##.fff",
"fffff.#.eddddddddddddddd.ddd.aaaaaaaaaaaa###ffff",
"ffffff..eddddddddddddddd.ddd.aaaaaaaaaaa##.fffff",
"fffffff.eddddddddddddddd.ddd.aaaaaaaaaa##.ffffff",
"fffffff.eddddddddddddddcc...aaaaaaaaaa##.fffffff",
"fffffff.edddddddddddddcc...aa....aa....#....ffff",
"fffffff.eddddddddddddcc..dd..dddd..dddd..ddd.fff",
"fffffff.edddddddddddcc..ddd.a.ddddddddddddddd.ff",
"fffffff.eddddddddddcc.a.ddd.a.ddddddddddddddd.ff",
"fffffff.edddddddddcc.aa.dd.aa.dd....dd....dd.fff",
"fffffff.eddddddddcc.aa.ddd.a.ddd.#.ddd.f.ddd.fff",
"fffffff.edddddddcc.aaa.dd.aa.dd.##.dd.ff.dd.ffff",
"fffffff.eddddddcc.aaa.ddd.a.ddd.#.ddd.f.ddd.ffff",
"fffffff.edddddcc.##aa.dd.aa.dd..f.dd.ff.dd.fffff",
"fffffff.eddddcc.f.##.ddd.a.ddd.f.ddd.f.ddd.fffff",
"ffffffff.ccccc.fff.#.dddd..dddd..dddd..dddd.ffff",
"fffffffff.....fffff.#....a#....ff....ff....fffff",
"ffffffffffffffffffff.##aa##.ffffffffffffffffffff",
"fffffffffffffffffffff.####.fffffffffffffffffffff",
"ffffffffffffffffffffff.##.ffffffffffffffffffffff",
"fffffffffffffffffffffff..fffffffffffffffffffffff"
};
