/* XPM */
static char * tb_blank_xpm[] = {
/* width height num_colors chars_per_pixel */
"18 18 2 1",
/* colors */
" 	c none",
".	c black",
/* pixels */
"..................",
".                .",
".                .",
".                .",
".                .",
".                .",
".                .",
".                .",
".                .",
".                .",
".                .",
".                .",
".                .",
".                .",
".                .",
".                .",
"..................",
"                  "};
