/* XPM */
static char * tb_close_xpm[] = {
/* width height num_colors chars_per_pixel */
"18 18 7 1",
/* colors */
"#	s None	c None",
":	c white",
" 	c black",
"$	c grey50",
"x	c grey",
".	c #800000",
"%	c red",
/* pixels */
"##################",
"####.#######.#####",
"###.%.     .%. ###",
"##.%%%.xxx.%%%.$##",
"###.%%%.x.%%%. $##",
"### .%%%.%%%.: $##",
"### x.%%%%%.x: $##",
"### xx.%%%.xx: $##",
"### x.%%%%%.x: $##",
"### .%%%.%%%.: $##",
"###.%%%.x.%%%. $##",
"##.%%%.xxx.%%%.$##",
"###.%.xxxxx.%%%.##",
"### .xxxxxxx.%.$##",
"### ::::::::x. $##",
"###            $##",
"######$$$$$$$$$$##",
"##################"
};
