/* XPM */
static char * tb_find_xpm[] = {
/* width height num_colors chars_per_pixel */
"18 18 7 1",
/* colors */
" 	c None",
".	c black",
"X	c white",
"o	c lightgray",
"O	c lightsteelblue",
"+	c grey",
"@	c grey50",
/* pixels */
"                  ",
" .........        ",
" .XXXXXXX..       ",
" .XXXXXXX.o.      ",
" .XXXXXXX....     ",
" .XXXXXXXXXX.     ",
" .XXXXXXX....     ",
" .XXXXXX.OOOO.    ",
" .XXXXX.OXXOOO.   ",
" .XXXXX.OXOOOO.   ",
" .XXXXX.OOOOOO.   ",
" .XXXXX.OOOXOO.   ",
" .XXXXXX.OOOO.+   ",
" .XXXXXXX....+..  ",
" .XXXXXXXXXX. ... ",
" ............  .. ",
"    @@@@@@@@@@    ",
"                  "};
