/* XPM */
static char * tb_help_xpm[] = {
/* width height num_colors chars_per_pixel */
"18 18 3 1",
/* colors */
" 	c None",
".	c black",
"X	c grey50",
/* pixels */
"                  ",
"                  ",
"      .....X      ",
"     ..  X..X     ",
"    ..X   ...     ",
"    ..X   ...     ",
"    X..  X..X     ",
"         ..X      ",
"        ..        ",
"       ..X        ",
"       ..X        ",
"                  ",
"       ..X        ",
"       ..X        ",
"       ..X        ",
"        XX        ",
"                  ",
"                  "};
