/* XPM */
static char * tb_maximize_xpm[] = {
/* width height num_colors chars_per_pixel */
"18 18 5 1",
/* colors */
" 	s None	c None",
".	c white",
"X	c black",
"a	c grey50",
"x	c lightsteelblue",
/* pixels */
"                  ",
"  .XXXXXXXXXXX    ",
"  .Xxxxxxxxx.X    ",
"  .Xxx.xxxxx.Xa   ",
"  .Xx..xxxxx.Xa   ",
"  .Xxxxxxxxx.Xa   ",
"  .Xxxxxxxxx.Xa   ",
"  .Xxxxxxxxx.Xa   ",
"  .Xxxxxxxxx.Xa   ",
"  .Xxxxxxxxx.Xa   ",
"  .Xxxxxxxxx.Xa   ",
"  .Xxxxxxxxx.Xa   ",
"  .Xxxxxxxxx.Xa   ",
"  .Xxxxxxxxx.Xa   ",
"  .X.........Xa   ",
"  .XXXXXXXXXXXa   ",
"     aaaaaaaaaa   ",
"                  "};
