/* XPM */
static char *tb_macro_xpm[] = {
/* width height num_colors chars_per_pixel */
"    18    18        4            1",
/* colors */
"  c None",
". c grey50",
"# c black",
"o c white",
/* pixels */
"     .##.         ",
"    .#oo#.        ",
"    #oooo#.       ",
"   .#oooo#.       ",
"    .#oo#.        ",
"     #####.       ",
"   #####o#.       ",
"  .#oooooo#       ",
"  ##oooooo##      ",
"   .####oo.#      ",
"    .###ooo#.     ",
"    ##ooooo##     ",
"   .#ooooooo##    ",
"   #ooo###ooo##   ",
"  #ooo#. ##oooo#  ",
"  #oo#.   .#ooo#  ",
"  .###     .###.  ",
"   ..        .#   "};
