/* XPM */
static char * tb_new_xpm[] = {
"18 18 5 1",
"       s mask  c None",
".      s dark  c grey50",
"X      s white c white",
"x      c lightsteelblue",
"o      s style c black",
"         .  .X.   ",
"         X. .X. X.",
"          X.oXoX.X",
" ooooooooooXXXXo..",
" oxxxxxxxxXXXXXXXX",
" oxxXxxxxxoXoXXo..",
" oxXXxxxx.xXoXoX  ",
" oxxxxxx.xxXoX..X ",
" oxxxxxxxxxXoX. .X",
" oxxxxxxxxxXo.   .",
" oxxxxxxxxxXo.    ",
" oxxxxxxxxxXo.    ",
" oxxxxxxxxxXo.    ",
" oxxxxxxxxxXo.    ",
" oxxxxxxxxxXo.    ",
" oXXXXXXXXXXo.    ",
" oooooooooooo.    ",
"    ..........    "};
